<svg width="1000" height="400" xmlns="http://www.w3.org/2000/svg">
    <path d="M704 336c15.947 0 28.817-1.388 38.61-4.163 9.792-2.776 17.043-7.217 21.752-13.323 4.71-6.106 7.065-14.294 7.065-24.563 0-3.33-.187-6.476-.56-9.437l-4.197-39.412c-.093-.833-.14-2.035-.14-3.608 0-8.604 3.404-14.71 10.212-18.318 6.808-3.609 16.228-5.413 28.258-5.413v-35.526c-12.124 0-21.566-1.804-28.328-5.413-6.76-3.608-10.142-9.714-10.142-18.318 0-1.573.047-2.775.14-3.608l4.197-39.69c.373-4.07.56-7.031.56-8.881 0-10.27-2.332-18.504-6.995-24.703-4.663-6.198-11.914-10.685-21.753-13.46C732.84 65.387 719.947 64 704 64v30.53c8.673 0 15.201 1.11 19.584 3.331 4.384 2.22 6.575 6.199 6.575 11.935 0 1.018-.046 1.804-.14 2.36l-4.336 40.938c-.28 2.59-.42 5.088-.42 7.494 0 12.212 3.66 21.302 10.981 27.27 7.321 5.966 18.35 10.014 33.084 12.142-14.175 2.128-25.063 6.245-32.664 12.351-7.6 6.106-11.4 15.312-11.4 27.616 0 2.128.139 4.441.419 6.94l4.336 40.938c.094.555.14 1.341.14 2.36 0 5.735-2.191 9.713-6.575 11.934-4.383 2.22-10.91 3.33-19.584 3.33V336zm166 0c15.947 0 28.817-1.388 38.61-4.163 9.792-2.776 17.043-7.217 21.752-13.323 4.71-6.106 7.065-14.294 7.065-24.563 0-3.33-.187-6.476-.56-9.437l-4.197-39.412c-.093-.833-.14-2.035-.14-3.608 0-8.604 3.404-14.71 10.212-18.318 6.808-3.609 16.228-5.413 28.258-5.413v-35.526c-12.124 0-21.566-1.804-28.328-5.413-6.76-3.608-10.142-9.714-10.142-18.318 0-1.573.047-2.775.14-3.608l4.197-39.69c.373-4.07.56-7.031.56-8.881 0-10.27-2.332-18.504-6.995-24.703-4.663-6.198-11.914-10.685-21.753-13.46C898.84 65.387 885.947 64 870 64v30.53c8.673 0 15.201 1.11 19.584 3.331 4.384 2.22 6.575 6.199 6.575 11.935 0 1.018-.046 1.804-.14 2.36l-4.336 40.938c-.28 2.59-.42 5.088-.42 7.494 0 12.212 3.66 21.302 10.981 27.27 7.321 5.966 18.35 10.014 33.084 12.142-14.175 2.128-25.063 6.245-32.664 12.351-7.6 6.106-11.4 15.312-11.4 27.616 0 2.128.139 4.441.419 6.94l4.336 40.938c.094.555.14 1.341.14 2.36 0 5.735-2.191 9.713-6.575 11.934-4.383 2.22-10.91 3.33-19.584 3.33V336zM130 336v-30.53c-8.673 0-15.201-1.11-19.584-3.331-4.384-2.22-6.575-6.199-6.575-11.935 0-1.018.046-1.804.14-2.36l4.336-40.938c.28-2.683.42-5.18.42-7.494 0-12.305-3.66-21.417-10.981-27.339-7.321-5.92-18.303-9.945-32.944-12.073 14.082-2.128 24.923-6.268 32.524-12.42 7.6-6.153 11.4-15.335 11.4-27.547 0-2.128-.139-4.441-.419-6.94l-4.336-40.938c-.094-.555-.14-1.341-.14-2.36 0-5.735 2.191-9.713 6.575-11.934 4.383-2.22 10.91-3.33 19.584-3.33V64c-15.947 0-28.817 1.388-38.61 4.163-9.792 2.776-17.043 7.217-21.752 13.323-4.71 6.106-7.065 14.294-7.065 24.563 0 3.33.187 6.476.56 9.437l4.197 39.412c.093.833.14 2.035.14 3.608 0 8.604-3.404 14.71-10.212 18.318-6.808 3.609-16.228 5.413-28.258 5.413v35.526c12.124 0 21.566 1.804 28.328 5.413 6.76 3.608 10.142 9.714 10.142 18.318 0 1.573-.047 2.775-.14 3.608l-4.197 39.69c-.373 4.07-.56 7.031-.56 8.881 0 10.27 2.332 18.504 6.995 24.703 4.663 6.198 11.914 10.685 21.753 13.46C101.16 334.613 114.053 336 130 336zm166 0v-30.53c-8.673 0-15.201-1.11-19.584-3.331-4.384-2.22-6.575-6.199-6.575-11.935 0-1.018.046-1.804.14-2.36l4.336-40.938c.28-2.683.42-5.18.42-7.494 0-12.305-3.66-21.417-10.981-27.339-7.321-5.92-18.303-9.945-32.944-12.073 14.082-2.128 24.923-6.268 32.524-12.42 7.6-6.153 11.4-15.335 11.4-27.547 0-2.128-.139-4.441-.419-6.94l-4.336-40.938c-.094-.555-.14-1.341-.14-2.36 0-5.735 2.191-9.713 6.575-11.934 4.383-2.22 10.91-3.33 19.584-3.33V64c-15.947 0-28.817 1.388-38.61 4.163-9.792 2.776-17.043 7.217-21.752 13.323-4.71 6.106-7.065 14.294-7.065 24.563 0 3.33.187 6.476.56 9.437l4.197 39.412c.093.833.14 2.035.14 3.608 0 8.604-3.404 14.71-10.212 18.318-6.808 3.609-16.228 5.413-28.258 5.413v35.526c12.124 0 21.566 1.804 28.328 5.413 6.76 3.608 10.142 9.714 10.142 18.318 0 1.573-.047 2.775-.14 3.608l-4.197 39.69c-.373 4.07-.56 7.031-.56 8.881 0 10.27 2.332 18.504 6.995 24.703 4.663 6.198 11.914 10.685 21.753 13.46C267.16 334.613 280.053 336 296 336z" fill="#1F356B"/>
    <g transform="translate(341 81)">
      <path d="M114.905 72.474l-74.94 128.59c-3.94 9.454 4.817 19.283 14.7 16.403l18.016-5.258c5.505-1.628 11.385.813 14.137 5.884l8.945 16.528c4.88 9.015 18.016 8.327 21.956-1.127l48.354-146.307c2.565-6.198-.375-13.335-6.568-15.965l-28.587-5.258c-6.318-2.63-13.449.313-16.013 6.51z" fill="#FFA1E0"/>
      <path d="M205.095 72.474l74.94 128.59c3.94 9.454-4.817 19.283-14.7 16.403l-18.016-5.258c-5.505-1.628-11.385.813-14.137 5.884l-8.945 16.528c-4.88 9.015-18.016 8.327-21.956-1.127L153.927 87.187c-2.565-6.198.375-13.335 6.568-15.965l28.587-5.258c6.318-2.63 13.449.313 16.013 6.51z" fill="#FFA1E0"/>
      <path d="M46.348 3.221s1.75-1.004 4.624-1.63c2.875-.69 6.874-.879 11.435 0 4.562.94 9.81 3.01 15.184 6.523 2.687 1.819 5.437 3.763 8.249 5.708 2.75 2.133 5.623 4.014 8.435 6.398a983.84 983.84 0 018.374 6.774c2.749 2.196 5.373 4.83 7.998 7.151a133.665 133.665 0 017.436 7.088c2.312 2.447 4.561 4.454 6.56 6.838 4.062 4.39 7.374 8.405 9.686 11.29a676.95 676.95 0 003.562 4.83c11.81 15.87 8.56 38.326-7.186 50.181-.25.189-.625.502-.937.69 0 0-1.75 1.255-4.874 3.45a208.977 208.977 0 01-12.685 7.653c-2.624 1.568-5.374 2.823-8.373 4.39-3 1.57-6.061 3.075-9.248 4.454-3.187 1.38-6.499 3.074-9.81 4.266-3.312 1.254-6.687 2.572-10.06 3.826-3.375 1.38-6.687 2.258-9.999 3.387-3.249.941-6.498 1.882-9.56 2.823-6.186 1.631-11.748 2.007-16.434 1.443-4.624-.627-8.373-2.07-10.873-3.638-2.5-1.506-3.874-3.011-3.874-3.011-33.93-37.072-31.556-94.466 5.249-128.464 5.186-4.767 11.185-9.095 17.121-12.42zM295.947 143.104s-1.374 1.443-3.872 3.011c-2.499 1.569-6.247 3.011-10.869 3.639-4.622.564-10.243.188-16.427-1.443a935.17 935.17 0 00-9.557-2.823c-3.31-1.13-6.62-2.07-9.993-3.388-3.373-1.255-6.746-2.572-10.057-3.827-3.31-1.192-6.62-2.886-9.806-4.266-3.186-1.38-6.246-2.823-9.244-4.454-2.936-1.568-5.747-2.823-8.37-4.392a208.87 208.87 0 01-12.68-7.653c-3.123-2.196-4.872-3.45-4.872-3.45-16.115-11.356-20.05-33.69-8.745-49.938.188-.251.438-.628.688-.941 0 0 1.311-1.757 3.56-4.831 2.31-2.886 5.621-6.9 9.681-11.292 2-2.322 4.248-4.392 6.559-6.839 2.31-2.446 4.81-4.768 7.433-7.089 2.623-2.32 5.246-4.956 7.995-7.152a983.55 983.55 0 018.37-6.775c2.81-2.384 5.621-4.266 8.432-6.4 2.81-1.944 5.559-3.826 8.245-5.708 5.371-3.513 10.556-5.583 15.178-6.525 4.622-.878 8.557-.627 11.43 0 2.874.628 4.622 1.632 4.622 1.632 43.598 24.467 59.214 79.8 34.854 123.589-3.56 6.273-7.995 12.233-12.555 17.315z" fill="#FF3ED2"/>
      <circle fill="#FF5FD2" cx="160.5" cy="94.5" r="43.5"/>
      <path d="M134.494 91a8.16 8.16 0 01-3.215-.627c-4.329-1.82-6.431-6.9-4.638-11.292 2.72-6.712 7.42-12.17 13.541-15.87 4.081-2.447 9.275-1.067 11.625 3.073 2.411 4.078 1.051 9.41-3.03 11.794-2.968 1.756-5.194 4.39-6.492 7.59A8.354 8.354 0 01134.494 91z" fill="#FFA1E0"/>
    </g>
</svg>
