<svg height="511.9" viewBox="0 0 511.9 511.9" width="511.9" xmlns="http://www.w3.org/2000/svg"><path d="m184.5 183.2-119.8 205.4c-6.3 15.1 7.7 30.8 23.5 26.2l28.8-8.4c8.8-2.6 18.2 1.3 22.6 9.4l14.3 26.4c7.8 14.4 28.8 13.3 35.1-1.8l77.3-233.7c4.1-9.9-.6-21.3-10.5-25.5l-45.7-8.4c-10.1-4.2-21.5.5-25.6 10.4z" fill="#ffa1e0"/><path d="m328.6 183.2 119.8 205.4c6.3 15.1-7.7 30.8-23.5 26.2l-28.8-8.4c-8.8-2.6-18.2 1.3-22.6 9.4l-14.3 26.4c-7.8 14.4-28.8 13.3-35.1-1.8l-77.3-233.7c-4.1-9.9.6-21.3 10.5-25.5l45.7-8.4c10.1-4.2 21.5.5 25.6 10.4z" fill="#ffa1e0"/><path d="m75.7 71.2s2.8-1.6 7.4-2.6c4.6-1.1 11-1.4 18.3 0 7.3 1.5 15.7 4.8 24.3 10.4 4.3 2.9 8.7 6 13.2 9.1 4.4 3.4 9 6.4 13.5 10.2 4.5 3.6 9 7.2 13.4 10.8 4.4 3.5 8.6 7.7 12.8 11.4s8.1 7.4 11.9 11.3c3.7 3.9 7.3 7.1 10.5 10.9 6.5 7 11.8 13.4 15.5 18 3.6 4.9 5.7 7.7 5.7 7.7 18.9 25.3 13.7 61.1-11.5 80-.4.3-1 .8-1.5 1.1 0 0-2.8 2-7.8 5.5-4.9 3.2-12 7.6-20.3 12.2-4.2 2.5-8.6 4.5-13.4 7s-9.7 4.9-14.8 7.1-10.4 4.9-15.7 6.8c-5.3 2-10.7 4.1-16.1 6.1-5.4 2.2-10.7 3.6-16 5.4-5.2 1.5-10.4 3-15.3 4.5-9.9 2.6-18.8 3.2-26.3 2.3-7.4-1-13.4-3.3-17.4-5.8-4-2.4-6.2-4.8-6.2-4.8-54.3-59.1-50.5-150.6 8.4-204.8 8.3-7.6 17.9-14.5 27.4-19.8z" fill="#ff3ed2"/><path d="m473.3 295.6s-2.2 2.3-6.2 4.8-10 4.8-17.4 5.8c-7.4.9-16.4.3-26.3-2.3-5-1.5-10.1-3-15.3-4.5-5.3-1.8-10.6-3.3-16-5.4-5.4-2-10.8-4.1-16.1-6.1-5.3-1.9-10.6-4.6-15.7-6.8s-10-4.5-14.8-7.1c-4.7-2.5-9.2-4.5-13.4-7-8.3-4.6-15.4-9-20.3-12.2-5-3.5-7.8-5.5-7.8-5.5-25.8-18.1-32.1-53.7-14-79.6.3-.4.7-1 1.1-1.5 0 0 2.1-2.8 5.7-7.7 3.7-4.6 9-11 15.5-18 3.2-3.7 6.8-7 10.5-10.9s7.7-7.6 11.9-11.3 8.4-7.9 12.8-11.4c4.4-3.6 8.9-7.2 13.4-10.8 4.5-3.8 9-6.8 13.5-10.2 4.5-3.1 8.9-6.1 13.2-9.1 8.6-5.6 16.9-8.9 24.3-10.4 7.4-1.4 13.7-1 18.3 0s7.4 2.6 7.4 2.6c69.8 39 94.8 127.2 55.8 197-5.7 10-12.8 19.5-20.1 27.6z" fill="#ff3ed2"/><circle cx="256.5" cy="217.6" fill="#ff5fd2" r="69.4"/><path d="m216.3 212c-1.8 0-3.5-.3-5.2-1-7-2.9-10.4-11-7.5-18 4.4-10.7 12-19.4 21.9-25.3 6.6-3.9 15-1.7 18.8 4.9 3.9 6.5 1.7 15-4.9 18.8-4.8 2.8-8.4 7-10.5 12.1-2.1 5.3-7.2 8.5-12.6 8.5z" fill="#ffa1e0"/></svg>