<svg height="700pt" preserveAspectRatio="xMidYMid meet" viewBox="0 0 700 700" width="700pt" xmlns="http://www.w3.org/2000/svg"><path d="m1160 6069c-72-13-142-46-252-119-299-200-530-464-688-785-327-665-249-1461 201-2060 173-232 299-300 549-298 136 1 203 14 445 89 99 31 188 59 197 61 11 3-119-229-343-613-199-341-370-636-380-656-26-50-25-158 0-214 40-88 125-145 226-151 51-4 94 6 284 61 251 74 310 81 384 46 72-34 111-86 227-300 61-113 125-219 142-237 78-80 227-98 324-38 26 17 61 48 76 70 19 28 136 368 380 1108l353 1068 25-6c59-16 201-22 285-13 50 5 101 10 114 11 27 2-23 146 462-1323l273-825 50-50c58-58 103-75 193-75 69 0 148 34 186 80 13 15 73 119 133 230s121 216 136 235c16 18 51 45 80 59 78 39 141 35 328-19 291-85 301-88 360-82 93 8 173 63 215 146 23 45 31 139 15 185-6 20-180 324-386 677-205 353-366 638-356 634 9-4 103-34 207-66 253-79 330-92 480-86 211 8 319 60 449 217 198 238 332 497 404 786 48 191 56 262 56 484 0 225-12 320-65 518-127 481-440 901-868 1166-105 65-159 84-255 93-249 21-481-99-991-513-178-144-557-514-682-666l-80-96-29 19c-60 41-166 90-251 115-119 36-329 45-453 20-96-20-210-63-293-112-33-19-63-34-67-32s-44 47-90 101c-168 201-435 461-670 652-234 191-501 378-613 430-144 66-308 95-427 74z" transform="matrix(.1 0 0 -.1 0 700)"/></svg>